<svg enable-background="new 0 0 24 24" height="512" viewBox="0 0 24 24" width="512" xmlns="http://www.w3.org/2000/svg"><path d="m23.5 24h-23c-.276 0-.5-.224-.5-.5v-23c0-.276.224-.5.5-.5h23c.276 0 .5.224.5.5v23c0 .276-.224.5-.5.5zm-22.5-1h22v-22h-22z"/><path d="m20.5 21h-17c-.276 0-.5-.224-.5-.5v-17c0-.276.224-.5.5-.5h17c.276 0 .5.224.5.5v17c0 .276-.224.5-.5.5zm-16.5-1h16v-16h-16z"/><path d="m16.5 21c-.276 0-.5-.224-.5-.5v-17c0-.276.224-.5.5-.5s.5.224.5.5v17c0 .276-.224.5-.5.5z"/><path d="m12 21c-.276 0-.5-.224-.5-.5v-17c0-.276.224-.5.5-.5s.5.224.5.5v17c0 .276-.224.5-.5.5z"/><path d="m7.5 21c-.276 0-.5-.224-.5-.5v-17c0-.276.224-.5.5-.5s.5.224.5.5v17c0 .276-.224.5-.5.5z"/><path d="m20.5 4c-.128 0-.256-.049-.354-.146-.195-.195-.195-.512 0-.707l3-3c.195-.195.512-.195.707 0s.195.512 0 .707l-3 3c-.097.097-.225.146-.353.146z"/><path d="m3.5 4c-.128 0-.256-.049-.354-.146l-3-3c-.195-.195-.195-.512 0-.707s.512-.195.707 0l3 3c.195.195.195.512 0 .707-.097.097-.225.146-.353.146z"/><path d="m.5 24c-.128 0-.256-.049-.354-.146-.195-.195-.195-.512 0-.707l3-3c.195-.195.512-.195.707 0s.195.512 0 .707l-3 3c-.097.097-.225.146-.353.146z"/><path d="m23.5 24c-.128 0-.256-.049-.354-.146l-3-3c-.195-.195-.195-.512 0-.707s.512-.195.707 0l3 3c.195.195.195.512 0 .707-.097.097-.225.146-.353.146z"/></svg>